<svg xmlns="http://www.w3.org/2000/svg" viewBox="0 0 176 209"><defs><style>.cls-1{fill:#fff;}.cls-2{font-size:16px;font-family:SitkaHeading, Sitka;}.cls-2,.cls-8{fill:#36312b;}.cls-2,.cls-7{letter-spacing:0.1em;}.cls-3{letter-spacing:0.06em;}.cls-4{letter-spacing:0.1em;}.cls-5{letter-spacing:0.09em;}.cls-6{letter-spacing:0.1em;}.cls-9{fill:none;}</style></defs><g id="Layer_2" data-name="Layer 2"><g id="OBJECTS"><path class="cls-1" d="M25,72.06a2.36,2.36,0,1,1,3.27-.64A2.35,2.35,0,0,1,25,72.06Z"/><text class="cls-2" transform="translate(47.83 183.75)">C<tspan class="cls-3" x="10.95" y="0">A</tspan><tspan class="cls-4" x="21.17" y="0">TERING</tspan><tspan class="cls-4"><tspan x="-17.48" y="19.2">MA</tspan><tspan class="cls-5" x="8.05" y="19.2">N</tspan><tspan class="cls-6" x="20.34" y="19.2">A</tspan><tspan class="cls-7" x="31.2" y="19.2">GEMENT</tspan></tspan></text><text/><path class="cls-8" d="M22.93,117.14c-3-1.79-5.79-4.26-6.68-7.6,3.06,6.22,18,6,19.81,18.66,2.08-1.19,3.17-3.78,2.38-8.16-1.91-10.67-19.06-7-23.79-15.82C8.28,117.76,26.35,131,34.7,128.74,30.92,119.78,29.13,120.87,22.93,117.14Z"/><path class="cls-8" d="M156.16,117.14c3-1.79,5.8-4.26,6.68-7.6-3.05,6.22-18,6-19.8,18.66-2.09-1.19-3.17-3.78-2.39-8.16,1.91-10.67,19.06-7,23.79-15.82,6.37,13.54-11.69,26.75-20.05,24.52C148.18,119.78,150,120.87,156.16,117.14Z"/><path class="cls-8" d="M11.1,71.71l4.28-6.35a3.33,3.33,0,0,1,4.62-.9l37.16,25a3.33,3.33,0,0,1,.9,4.62l-3.74,5.55a3.33,3.33,0,0,1-6-1.08h0a3.31,3.31,0,0,0-1.56-2.09l-34.57-20A3.32,3.32,0,0,1,11.1,71.71Z"/><path class="cls-1" d="M49.15,94.34a2.36,2.36,0,1,1,3.28-.64A2.35,2.35,0,0,1,49.15,94.34Z"/><path class="cls-1" d="M18.45,73.68A2.36,2.36,0,1,1,21.73,73,2.37,2.37,0,0,1,18.45,73.68Z"/><path class="cls-8" d="M92.15,140.41A117,117,0,0,1,75.34,132l-9.07-5.43c-22.76-13.6-19-11-15.45-16.76,3.38-5.38,9.14-13.7,10.88-16.2A.92.92,0,0,1,63,93.38c2.8,1.86,13,9.09,24.86,17.65,8.08,5.8,17,12.21,24.88,18C125,137.92,135,145.25,136,146.22,138.42,148.45,117.81,150.77,92.15,140.41Z"/><path class="cls-1" d="M124.09,143.47c-10.43-6.41-20.52-13.32-30.51-20.35s-19.83-14.29-29.35-22c10.44,6.41,20.52,13.32,30.52,20.35S114.57,135.76,124.09,143.47Z"/><path class="cls-8" d="M168,71.71l-4.28-6.35a3.33,3.33,0,0,0-4.62-.9l-37.16,25A3.33,3.33,0,0,0,121,94.1l3.74,5.55a3.33,3.33,0,0,0,6-1.08h0a3.29,3.29,0,0,1,1.57-2.09l34.56-20A3.33,3.33,0,0,0,168,71.71Z"/><path class="cls-1" d="M129.94,94.34a2.36,2.36,0,1,0-3.27-.64A2.35,2.35,0,0,0,129.94,94.34Z"/><circle class="cls-1" cx="159.32" cy="71.72" r="2.36" transform="translate(-10.89 111.14) rotate(-37.28)"/><path class="cls-1" d="M87.82,111c-7.07,5.09-14.64,10.55-21.55,15.55L75.34,132a117,117,0,0,0,16.81,8.4,122.67,122.67,0,0,0,12.65-6.67l7.9-4.74C104.78,123.24,95.9,116.83,87.82,111Z"/><path class="cls-8" d="M117.39,93.62a.9.9,0,0,0-1.25-.24c-7.65,5.07-70.31,50.31-73,52.84-2.92,2.69,28,5.54,60.66-14.21s28.54-15.8,24.53-22.19C124.9,104.45,119.13,96.12,117.39,93.62Z"/><path class="cls-1" d="M55,143.47c9.52-7.71,19.39-14.91,29.35-22s20.07-13.94,30.51-20.35c-9.51,7.71-19.38,14.92-29.34,22S65.44,137.06,55,143.47Z"/><path class="cls-8" d="M120.53,42.92v29.9a12.35,12.35,0,0,1-.38,3c-.09.35-.21.69-.33,1a8.62,8.62,0,0,1-5,5.36,79.26,79.26,0,0,1-52.44,0c-3.37-1.17-5.74-5-5.74-9.41V42.92A79.58,79.58,0,0,0,120.53,42.92Z"/><path class="cls-8" d="M144.07,43c0,11.36-8.67,20.6-19.31,20.6a18.55,18.55,0,0,1-14.36-6.88c-.29-.33-.55-.66-.81-1l-.67.17a31.1,31.1,0,0,1-7,.8,33.77,33.77,0,0,1-5.57-.47,33,33,0,0,1-10.24-3.57h0c-.83-.46-1.63-1-2.4-1.48-.19.27-.37.54-.56.79a18.77,18.77,0,0,1-14.75,7.92h0a3.39,3.39,0,0,1-.45,0,18.25,18.25,0,0,1-10.83-3.57c-.42.14-.83.27-1.25.38a15.33,15.33,0,0,1-4,.52c-9.28,0-16.81-8-16.81-17.92a18,18,0,0,1,9.63-16.2,13.92,13.92,0,0,1,1.48-.66c0-.14,0-.29.08-.42V22C48.58,10.17,59.92,1.43,73.13,1.43a28.73,28.73,0,0,1,17.36,5.7c.42.31.83.63,1.23,1,.49-.23,1-.44,1.49-.63a29.84,29.84,0,0,1,10.84-2,33.87,33.87,0,0,1,5.57.47c10.66,1.84,19.39,8.55,22.62,17.27.12.31.23.61.33.93.35.16.69.34,1,.53A20.76,20.76,0,0,1,144.07,43Z"/><path class="cls-1" d="M120.15,75.77c-.09.35-.21.69-.33,1A79.59,79.59,0,0,1,111.47,79a74.53,74.53,0,0,1-11.92,1.37c-2,0-4,0-6-.06a48.89,48.89,0,0,1-5.94-.71,77.37,77.37,0,0,0,11.89,0A81.53,81.53,0,0,0,111.27,78l1.45-.27,1.45-.34c1-.24,1.92-.45,2.87-.72Z"/><path class="cls-1" d="M120.53,71.79v1l-1,.29a91,91,0,0,1-11.79,2.32,50.11,50.11,0,0,1-12,.15,45.76,45.76,0,0,0,6-.2c2-.15,4-.42,5.92-.72a110,110,0,0,0,11.63-2.52C119.67,72,120.1,71.92,120.53,71.79Z"/><path class="cls-1" d="M120.53,67.75v1l-1,.29a89.34,89.34,0,0,1-11.79,2.32,49.6,49.6,0,0,1-12,.15,45.76,45.76,0,0,0,6-.2c2-.14,4-.42,5.92-.72a110,110,0,0,0,11.63-2.52Z"/><path class="cls-1" d="M51.13,31.87a10.38,10.38,0,0,1-6.47-8.78,13.92,13.92,0,0,1,1.48-.66c0-.14,0-.29.08-.42A11.38,11.38,0,0,0,51.13,31.87Z"/><path class="cls-1" d="M85.79,19.47c-1.45-5.26.69-9.32,4.7-12.34.42.31.83.63,1.23,1,.49-.23,1-.44,1.49-.63C88.53,10.09,85.46,13.76,85.79,19.47Z"/><path class="cls-1" d="M133.61,24.7a11.13,11.13,0,0,0-8.1,1.54,10.47,10.47,0,0,1,6.73-3c.12.31.23.61.33.93C132.92,24.33,133.26,24.51,133.61,24.7Z"/><path class="cls-1" d="M112.49,58a8.32,8.32,0,0,1-1.93-8.49,12.92,12.92,0,0,1,.72-1.65,10.18,10.18,0,0,0-2.43,7.22,30,30,0,0,1-7,.83,32.78,32.78,0,0,1-5.44-.47,31.67,31.67,0,0,1-10.75-3.92,7.77,7.77,0,0,1-2.42-2.18c-3-4.16-4.17-8.63-1.6-13.61-3.84,4.7-2.89,10.23,1,15.56a18.1,18.1,0,0,1-14.73,7.82,19.67,19.67,0,0,1-2.64-.2c-9.07-3-16.5-7.1-15.7-16-1.75,5.64,1,10.31,6.26,13.77.26.16.82.42.82.42a20.06,20.06,0,0,0,11.26,3.54,19.62,19.62,0,0,0,16-8.44A33.51,33.51,0,0,0,96.17,57a34.35,34.35,0,0,0,5.7.48,31.29,31.29,0,0,0,7.4-.87c2.93,3.79,6.86,7.13,11.26,8.12V63.1A17.2,17.2,0,0,1,112.49,58Z"/><path class="cls-1" d="M50.78,21.72A31.13,31.13,0,0,1,56,12.83a22.28,22.28,0,0,1,8.48-6A25,25,0,0,1,74.8,5.22,32.42,32.42,0,0,1,84.89,7.46,41.57,41.57,0,0,0,74.78,6a25.46,25.46,0,0,0-9.9,1.72,22.52,22.52,0,0,0-8.28,5.63A39.62,39.62,0,0,0,50.78,21.72Z"/><path class="cls-1" d="M91,13.47a30.79,30.79,0,0,1,9.53-4,22.21,22.21,0,0,1,10.41.23,25,25,0,0,1,9.18,4.91,32.42,32.42,0,0,1,6.73,7.83,41.46,41.46,0,0,0-7.22-7.22,25.38,25.38,0,0,0-9-4.55,22.7,22.7,0,0,0-10-.44A39.41,39.41,0,0,0,91,13.47Z"/><path class="cls-1" d="M136.92,30.73a27.89,27.89,0,0,1,3.67,12,16.21,16.21,0,0,1-4.17,11.85,16.51,16.51,0,0,1-11.55,5,15.83,15.83,0,0,1-6.24-1.2,13.87,13.87,0,0,1-5.1-3.67,15.3,15.3,0,0,0,11.32,4.09,16,16,0,0,0,10.84-4.9,14.57,14.57,0,0,0,3.15-5.14,18,18,0,0,0,1-6,23.52,23.52,0,0,0-.85-6.11A40.52,40.52,0,0,0,136.92,30.73Z"/><path class="cls-1" d="M107.9,50.51a26,26,0,0,1-8.07,1.73A20.94,20.94,0,0,1,95.65,52a17.15,17.15,0,0,1-4-1.29A13.76,13.76,0,0,1,85.47,45a11.72,11.72,0,0,1-1.37-4,5.63,5.63,0,0,1,.79-4,5.76,5.76,0,0,0-.3,3.94,11.24,11.24,0,0,0,1.55,3.65,14.3,14.3,0,0,0,5.92,5.14,18.84,18.84,0,0,0,7.76,1.69A35.88,35.88,0,0,0,107.9,50.51Z"/><path class="cls-1" d="M81.29,46.78a26.09,26.09,0,0,1-6,5.65,20.83,20.83,0,0,1-3.72,1.93,17,17,0,0,1-4.11,1,13.8,13.8,0,0,1-8.19-1.65A11.79,11.79,0,0,1,56,51a5.65,5.65,0,0,1-1.41-3.85,5.75,5.75,0,0,0,1.78,3.53A11.19,11.19,0,0,0,59.62,53a14.29,14.29,0,0,0,7.72,1.34,18.8,18.8,0,0,0,7.52-2.56A36.13,36.13,0,0,0,81.29,46.78Z"/><path class="cls-1" d="M54.74,54.37a18.11,18.11,0,0,1-4.08-.31,16.68,16.68,0,0,1-3.9-1.4,15.25,15.25,0,0,1-5.92-5.79A18,18,0,0,1,38.49,39a14,14,0,0,1,.34-4.13,7.52,7.52,0,0,1,.78-1.93,3.23,3.23,0,0,1,1.46-1.42,4.94,4.94,0,0,0-1.75,3.45,13.54,13.54,0,0,0-.06,4,19.71,19.71,0,0,0,2.46,7.48A16,16,0,0,0,47.14,52,18.62,18.62,0,0,0,54.74,54.37Z"/><rect class="cls-9" width="176" height="209"/></g></g></svg>