<svg xmlns="http://www.w3.org/2000/svg" viewBox="0 0 176 148.13"><defs><style>.cls-1{fill:#fff;}.cls-2{fill:#36312b;}.cls-3{fill:none;}</style></defs><g id="Layer_2" data-name="Layer 2"><g id="Layer_1-2" data-name="Layer 1"><g id="Layer_2-2" data-name="Layer 2"><g id="OBJECTS"><path class="cls-1" d="M14.48,70.63A2.36,2.36,0,1,1,17.75,70h0a2.35,2.35,0,0,1-3.26.65Z" transform="translate(10.52 1.43)"/><path class="cls-2" d="M12.41,115.71c-3-1.79-5.79-4.26-6.68-7.6,3.06,6.22,18,6,19.81,18.66,2.08-1.19,3.17-3.78,2.38-8.16-1.91-10.67-19.06-7-23.79-15.82-6.37,13.54,11.7,26.78,20.05,24.52C20.4,118.35,18.61,119.44,12.41,115.71Z" transform="translate(10.52 1.43)"/><path class="cls-2" d="M145.64,115.71c3-1.79,5.8-4.26,6.68-7.6-3,6.22-18,6-19.8,18.66-2.09-1.19-3.17-3.78-2.39-8.16,1.91-10.67,19.06-7,23.79-15.82,6.37,13.54-11.69,26.75-20,24.52C137.66,118.35,139.48,119.44,145.64,115.71Z" transform="translate(10.52 1.43)"/><path class="cls-2" d="M.58,70.28l4.28-6.35A3.33,3.33,0,0,1,9.48,63L46.64,88a3.34,3.34,0,0,1,.9,4.62L43.8,98.2a3.32,3.32,0,0,1-4.62.9,3.26,3.26,0,0,1-1.38-2h0A3.31,3.31,0,0,0,36.24,95L1.67,75A3.32,3.32,0,0,1,.44,70.5,1.64,1.64,0,0,1,.58,70.28Z" transform="translate(10.52 1.43)"/><path class="cls-1" d="M38.63,92.91a2.36,2.36,0,1,1,3.28-.64,2.36,2.36,0,0,1-3.28.64Z" transform="translate(10.52 1.43)"/><path class="cls-1" d="M7.93,72.25a2.36,2.36,0,1,1,3.28-.68A2.36,2.36,0,0,1,7.93,72.25Z" transform="translate(10.52 1.43)"/><path class="cls-2" d="M81.63,139a117.23,117.23,0,0,1-16.81-8.41l-9.07-5.43c-22.76-13.6-19-11-15.45-16.76,3.38-5.38,9.14-13.7,10.88-16.2a.93.93,0,0,1,1.28-.25l0,0c2.8,1.86,13,9.09,24.86,17.65,8.08,5.8,17,12.21,24.88,18,12.26,8.89,22.26,16.22,23.26,17.19C127.9,147,107.29,149.34,81.63,139Z" transform="translate(10.52 1.43)"/><path class="cls-1" d="M113.57,142c-10.43-6.41-20.52-13.32-30.51-20.35s-19.83-14.29-29.35-22C64.15,106.1,74.23,113,84.23,120S104.05,134.33,113.57,142Z" transform="translate(10.52 1.43)"/><path class="cls-2" d="M157.48,70.28l-4.28-6.35a3.33,3.33,0,0,0-4.62-.9L111.42,88a3.33,3.33,0,0,0-1,4.61l0,0,3.74,5.55a3.33,3.33,0,0,0,6-1.08h0a3.29,3.29,0,0,1,1.57-2.09l34.56-20a3.33,3.33,0,0,0,1.27-4.53C157.58,70.44,157.53,70.36,157.48,70.28Z" transform="translate(10.52 1.43)"/><path class="cls-1" d="M119.42,92.91a2.36,2.36,0,1,0-3.28-.65h0a2.35,2.35,0,0,0,3.26.65Z" transform="translate(10.52 1.43)"/><circle class="cls-1" cx="159.32" cy="71.7" r="2.36"/><path class="cls-1" d="M77.3,109.57c-7.07,5.09-14.64,10.55-21.55,15.55l9.07,5.45A116.14,116.14,0,0,0,81.63,139a122.08,122.08,0,0,0,12.65-6.67l7.9-4.74C94.26,121.81,85.38,115.4,77.3,109.57Z" transform="translate(10.52 1.43)"/><path class="cls-2" d="M106.87,92.19a.9.9,0,0,0-1.25-.24h0C98,97,35.31,142.26,32.62,144.79c-2.92,2.69,28,5.54,60.66-14.21s28.54-15.8,24.53-22.19C114.38,103,108.61,94.69,106.87,92.19Z" transform="translate(10.52 1.43)"/><path class="cls-1" d="M44.48,142c9.52-7.71,19.39-14.91,29.35-22S93.9,106.1,104.34,99.69C94.83,107.4,85,114.61,75,121.69S54.92,135.63,44.48,142Z" transform="translate(10.52 1.43)"/><path class="cls-2" d="M110,41.49v29.9a12.65,12.65,0,0,1-.38,3,9,9,0,0,1-.33,1,8.63,8.63,0,0,1-5,5.36,79.26,79.26,0,0,1-52.44,0c-3.37-1.17-5.74-5-5.74-9.41V41.49A79.61,79.61,0,0,0,110,41.49Z" transform="translate(10.52 1.43)"/><path class="cls-2" d="M133.55,41.57c0,11.36-8.67,20.6-19.31,20.6a18.54,18.54,0,0,1-14.36-6.88c-.29-.33-.55-.66-.81-1l-.67.17a31.19,31.19,0,0,1-7,.8,33.5,33.5,0,0,1-5.57-.47,32.93,32.93,0,0,1-10.24-3.57h0c-.83-.46-1.63-1-2.4-1.48-.19.27-.37.54-.56.79a18.77,18.77,0,0,1-14.75,7.92h-.45A18.19,18.19,0,0,1,46.6,54.88c-.42.14-.83.27-1.25.38a15.46,15.46,0,0,1-4,.52c-9.28,0-16.81-8-16.81-17.92a18,18,0,0,1,9.63-16.2A13.07,13.07,0,0,1,35.65,21a.77.77,0,0,1,.08-.42h0C38.06,8.74,49.4,0,62.61,0A28.72,28.72,0,0,1,80,5.7a14.17,14.17,0,0,1,1.23,1c.49-.23,1-.44,1.49-.63a30,30,0,0,1,10.84-2,33.59,33.59,0,0,1,5.57.47c10.66,1.84,19.39,8.55,22.62,17.27.12.31.23.61.33.93a9.44,9.44,0,0,1,1,.53A20.75,20.75,0,0,1,133.55,41.57Z" transform="translate(10.52 1.43)"/><path class="cls-1" d="M109.63,74.34a9,9,0,0,1-.33,1A80.25,80.25,0,0,1,101,77.57,73.53,73.53,0,0,1,89,78.94c-2,0-4,0-6-.06a47.42,47.42,0,0,1-5.94-.71,76.12,76.12,0,0,0,11.89,0,82,82,0,0,0,11.77-1.6l1.45-.27,1.45-.34c1-.24,1.92-.45,2.87-.72Z" transform="translate(10.52 1.43)"/><path class="cls-1" d="M110,70.36v1l-1,.29A91.32,91.32,0,0,1,97.22,74a50.19,50.19,0,0,1-12,.15,44.57,44.57,0,0,0,6-.2c2-.15,4-.42,5.92-.72a110,110,0,0,0,11.63-2.52C109.15,70.57,109.58,70.49,110,70.36Z" transform="translate(10.52 1.43)"/><path class="cls-1" d="M110,66.32v1l-1,.29a89.34,89.34,0,0,1-11.79,2.32,49.17,49.17,0,0,1-12,.15,44.57,44.57,0,0,0,6-.2c2-.14,4-.42,5.92-.72a110,110,0,0,0,11.63-2.52Z" transform="translate(10.52 1.43)"/><path class="cls-1" d="M40.61,30.44a10.37,10.37,0,0,1-6.47-8.78A13.07,13.07,0,0,1,35.62,21a.77.77,0,0,1,.08-.42A11.36,11.36,0,0,0,40.61,30.44Z" transform="translate(10.52 1.43)"/><path class="cls-1" d="M75.27,18C73.82,12.78,76,8.72,80,5.7a14.17,14.17,0,0,1,1.23,1c.49-.23,1-.44,1.49-.63C78,8.66,74.94,12.33,75.27,18Z" transform="translate(10.52 1.43)"/><path class="cls-1" d="M123.09,23.27a11.14,11.14,0,0,0-8.1,1.54,10.47,10.47,0,0,1,6.73-3c.12.31.23.61.33.93C122.4,22.9,122.74,23.08,123.09,23.27Z" transform="translate(10.52 1.43)"/><path class="cls-1" d="M102,56.57A8.31,8.31,0,0,1,100,48.08a12.11,12.11,0,0,1,.72-1.65,10.13,10.13,0,0,0-2.43,7.22,30,30,0,0,1-7,.83A31.88,31.88,0,0,1,85.89,54a31.54,31.54,0,0,1-10.75-3.92,7.77,7.77,0,0,1-2.42-2.18c-3-4.16-4.17-8.63-1.6-13.61-3.84,4.7-2.89,10.23,1,15.56a18.09,18.09,0,0,1-14.73,7.82,19.31,19.31,0,0,1-2.64-.2c-9.07-3-16.5-7.1-15.7-16-1.75,5.64,1,10.31,6.26,13.77.26.16.82.42.82.42a20,20,0,0,0,11.26,3.54,19.62,19.62,0,0,0,16-8.44,33.33,33.33,0,0,0,12.26,4.8,34,34,0,0,0,5.7.48,31.32,31.32,0,0,0,7.4-.87c2.93,3.79,6.86,7.13,11.26,8.12V61.67A17.17,17.17,0,0,1,102,56.57Z" transform="translate(10.52 1.43)"/><path class="cls-1" d="M40.26,20.29a31.09,31.09,0,0,1,5.22-8.89A22.21,22.21,0,0,1,54,5.4,24.88,24.88,0,0,1,64.28,3.79,32.39,32.39,0,0,1,74.37,6,41.7,41.7,0,0,0,64.26,4.57a25.55,25.55,0,0,0-9.9,1.72,22.51,22.51,0,0,0-8.28,5.63A39.68,39.68,0,0,0,40.26,20.29Z" transform="translate(10.52 1.43)"/><path class="cls-1" d="M80.48,12A30.89,30.89,0,0,1,90,8a22.21,22.21,0,0,1,10.41.23,25,25,0,0,1,9.18,4.91A32.55,32.55,0,0,1,116.33,21a41.81,41.81,0,0,0-7.22-7.22,25.52,25.52,0,0,0-9-4.55,22.68,22.68,0,0,0-10-.44A39.31,39.31,0,0,0,80.48,12Z" transform="translate(10.52 1.43)"/><path class="cls-1" d="M126.4,29.3a27.92,27.92,0,0,1,3.67,12,16.23,16.23,0,0,1-4.17,11.85,16.51,16.51,0,0,1-11.55,5,15.72,15.72,0,0,1-6.24-1.2,13.8,13.8,0,0,1-5.1-3.67,15.29,15.29,0,0,0,11.32,4.09,16,16,0,0,0,10.84-4.9,14.66,14.66,0,0,0,3.15-5.14,18,18,0,0,0,1-6,23.83,23.83,0,0,0-.85-6.11A41.52,41.52,0,0,0,126.4,29.3Z" transform="translate(10.52 1.43)"/><path class="cls-1" d="M97.38,49.08a26,26,0,0,1-8.07,1.73,20.87,20.87,0,0,1-4.18-.24,17,17,0,0,1-4-1.29A13.72,13.72,0,0,1,75,43.57a11.59,11.59,0,0,1-1.37-4,5.58,5.58,0,0,1,.79-4,5.76,5.76,0,0,0-.3,3.94,11,11,0,0,0,1.55,3.65,14.25,14.25,0,0,0,5.92,5.14A18.69,18.69,0,0,0,89.3,50,36,36,0,0,0,97.38,49.08Z" transform="translate(10.52 1.43)"/><path class="cls-1" d="M70.77,45.35a26.17,26.17,0,0,1-6,5.65,20.83,20.83,0,0,1-3.72,1.93,17.26,17.26,0,0,1-4.11,1,13.8,13.8,0,0,1-8.19-1.65,11.72,11.72,0,0,1-3.27-2.71,5.61,5.61,0,0,1-1.41-3.85,5.78,5.78,0,0,0,1.78,3.53,11,11,0,0,0,3.25,2.32,14.28,14.28,0,0,0,7.72,1.34,18.84,18.84,0,0,0,7.52-2.56A36.6,36.6,0,0,0,70.77,45.35Z" transform="translate(10.52 1.43)"/><path class="cls-1" d="M44.22,52.94a18,18,0,0,1-4.08-.31,16.21,16.21,0,0,1-3.9-1.4,15.25,15.25,0,0,1-5.92-5.79A17.92,17.92,0,0,1,28,37.57a14,14,0,0,1,.34-4.13,7.37,7.37,0,0,1,.78-1.93,3.19,3.19,0,0,1,1.46-1.42,4.92,4.92,0,0,0-1.75,3.45,13.41,13.41,0,0,0-.06,4A19.65,19.65,0,0,0,31.2,45a15.91,15.91,0,0,0,5.42,5.55A18.52,18.52,0,0,0,44.22,52.94Z" transform="translate(10.52 1.43)"/><line class="cls-3" x2="176"/></g></g></g></g></svg>