<svg xmlns="http://www.w3.org/2000/svg" viewBox="0 0 39.56 39.56"><defs><style>.cls-1{fill:none;stroke:#222221;stroke-miterlimit:10;stroke-width:1.5px;}.cls-2{fill:#222221;fill-rule:evenodd;}</style></defs><g id="Layer_2" data-name="Layer 2"><g id="Capa_1" data-name="Capa 1"><path class="cls-1" d="M19.78,38.81h0a19,19,0,0,1-19-19h0a19,19,0,0,1,19-19h0a19,19,0,0,1,19,19h0A19,19,0,0,1,19.78,38.81Z"/><path class="cls-2" d="M30.21,19.25a10.25,10.25,0,0,0-20.48-.18c0,.14,0,.29,0,.44a10.12,10.12,0,0,0,1.47,5.26L9.34,30.22,15,28.42A10.34,10.34,0,0,0,20,29.68,10.21,10.21,0,0,0,30.22,19.51,2.35,2.35,0,0,0,30.21,19.25ZM20,28.06a8.63,8.63,0,0,1-4.74-1.41L11.92,27.7,13,24.53a8.52,8.52,0,0,1-1.64-5,7.7,7.7,0,0,1,.05-.83,8.62,8.62,0,0,1,17.16.16c0,.23,0,.45,0,.67A8.59,8.59,0,0,1,20,28.06Z"/><path class="cls-2" d="M24.67,21.57c-.26-.13-1.49-.73-1.72-.82s-.4-.12-.57.13-.65.81-.79,1-.3.19-.55.07a7,7,0,0,1-2-1.24A8.08,8.08,0,0,1,17.62,19a.37.37,0,0,1,.11-.51c.12-.12.25-.3.38-.44a.47.47,0,0,0,.09-.12,1.68,1.68,0,0,0,.16-.3.41.41,0,0,0,0-.43c-.06-.13-.56-1.36-.77-1.86s-.42-.41-.57-.41l-.48,0a.92.92,0,0,0-.67.31A2.78,2.78,0,0,0,15,17.26a3,3,0,0,0,.13.85,5.52,5.52,0,0,0,.9,1.73,10.23,10.23,0,0,0,4.29,3.76c2.55,1,2.55.67,3,.62A2.52,2.52,0,0,0,25,23a2.12,2.12,0,0,0,.15-1.19C25.08,21.75,24.92,21.69,24.67,21.57Z"/></g></g></svg>