<svg xmlns="http://www.w3.org/2000/svg" viewBox="0 0 158.03 217"><defs><style>.cls-1{font-size:16px;font-family:OpenSans-Bold, OpenSans Bold;font-weight:700;}.cls-1,.cls-10,.cls-6{fill:#36312b;}.cls-2{letter-spacing:0em;}.cls-3{letter-spacing:-0.08em;}.cls-4{letter-spacing:-0.01em;}.cls-5{letter-spacing:-0.01em;}.cls-6{font-size:9px;font-family:OpenSans;letter-spacing:0.07em;}.cls-7{letter-spacing:0.08em;}.cls-8{letter-spacing:0em;}.cls-9{letter-spacing:0.08em;}.cls-11{fill:#fff;}</style></defs><g id="Layer_2" data-name="Layer 2"><g id="OBJECTS"><text class="cls-1" transform="translate(45.5 182.32)"><tspan class="cls-2">C</tspan><tspan class="cls-3" x="9.34" y="0">A</tspan><tspan x="17.9" y="0">TERING</tspan><tspan class="cls-4" x="-16.49" y="19.2">M</tspan><tspan x="-3.78" y="19.2">AN</tspan><tspan class="cls-5" x="16.54" y="19.2">A</tspan><tspan x="26.09" y="19.2">GEMENT</tspan></text><text class="cls-6" transform="translate(51.15 214.75)">APPLI<tspan class="cls-7" x="24.86" y="0">C</tspan><tspan class="cls-8" x="30.79" y="0">A</tspan><tspan class="cls-9" x="36.28" y="0">TION</tspan></text><path class="cls-10" d="M12.4,115.7c-3-1.78-5.8-4.25-6.68-7.59,3.06,6.22,18,6,19.81,18.66,2.08-1.19,3.17-3.79,2.38-8.17-1.91-10.66-19.06-7-23.79-15.81-6.37,13.54,11.69,26.75,20.05,24.51C20.39,118.35,18.6,119.44,12.4,115.7Z"/><path class="cls-10" d="M145.63,115.7c3-1.78,5.8-4.25,6.68-7.59-3.06,6.22-18,6-19.81,18.66-2.08-1.19-3.16-3.79-2.38-8.17,1.91-10.66,19.06-7,23.79-15.81,6.37,13.54-11.69,26.75-20,24.51C137.65,118.35,139.43,119.44,145.63,115.7Z"/><path class="cls-10" d="M.57,70.28l4.28-6.35A3.32,3.32,0,0,1,9.47,63l37.16,25a3.34,3.34,0,0,1,.9,4.62l-3.74,5.55a3.33,3.33,0,0,1-6-1.08h0a3.31,3.31,0,0,0-1.56-2.09L1.66,75A3.32,3.32,0,0,1,.57,70.28Z"/><path class="cls-11" d="M38.62,92.91a2.36,2.36,0,1,1,3.27-.64A2.35,2.35,0,0,1,38.62,92.91Z"/><path class="cls-11" d="M7.92,72.24a2.36,2.36,0,1,1,3.28-.64A2.36,2.36,0,0,1,7.92,72.24Z"/><path class="cls-10" d="M81.62,139a117,117,0,0,1-16.81-8.4l-9.07-5.43c-22.76-13.6-19.05-11-15.45-16.76,3.38-5.38,9.14-13.7,10.88-16.2A.91.91,0,0,1,52.43,92c2.8,1.86,13,9.09,24.86,17.65,8.08,5.8,17,12.21,24.88,18,12.29,8.92,22.26,16.25,23.31,17.22C127.89,147,107.27,149.33,81.62,139Z"/><path class="cls-11" d="M113.56,142c-10.43-6.41-20.52-13.32-30.51-20.35s-19.83-14.29-29.35-22C64.14,106.1,74.22,113,84.22,120S104,134.33,113.56,142Z"/><path class="cls-10" d="M157.46,70.28l-4.27-6.35a3.32,3.32,0,0,0-4.62-.9l-37.16,25a3.33,3.33,0,0,0-.91,4.62l3.74,5.55a3.33,3.33,0,0,0,6-1.08h0a3.29,3.29,0,0,1,1.57-2.09l34.56-20A3.32,3.32,0,0,0,157.46,70.28Z"/><path class="cls-11" d="M119.41,92.91a2.36,2.36,0,1,0-3.27-.64A2.35,2.35,0,0,0,119.41,92.91Z"/><circle class="cls-11" cx="148.79" cy="70.29" r="2.36" transform="translate(-12.18 104.47) rotate(-37.28)"/><path class="cls-11" d="M77.29,109.6c-7.07,5.09-14.64,10.55-21.55,15.55l9.07,5.43A117,117,0,0,0,81.62,139a122.67,122.67,0,0,0,12.65-6.67c2.9-1.75,5.54-3.34,7.9-4.74C94.25,121.81,85.37,115.4,77.29,109.6Z"/><path class="cls-10" d="M106.86,92.19A.91.91,0,0,0,105.6,92C98,97,35.29,142.26,32.56,144.79c-2.92,2.69,28,5.54,60.66-14.21s28.54-15.81,24.53-22.19C114.37,103,108.6,94.69,106.86,92.19Z"/><path class="cls-11" d="M44.47,142c9.52-7.71,19.39-14.91,29.35-22s20.07-13.94,30.51-20.35c-9.51,7.71-19.39,14.92-29.35,22S54.91,135.63,44.47,142Z"/><path class="cls-10" d="M110,41.49v29.9a12.35,12.35,0,0,1-.38,3c-.09.35-.21.69-.33,1a8.62,8.62,0,0,1-5,5.36,79.29,79.29,0,0,1-52.45,0c-3.36-1.17-5.73-5-5.73-9.42V41.49A79.58,79.58,0,0,0,110,41.49Z"/><path class="cls-10" d="M133.54,41.57c0,11.36-8.67,20.6-19.31,20.6a18.55,18.55,0,0,1-14.36-6.88c-.29-.33-.55-.66-.81-1l-.67.16a30.55,30.55,0,0,1-7,.81,33.77,33.77,0,0,1-5.57-.47A33,33,0,0,1,75.53,51.2h0c-.83-.46-1.63-1-2.41-1.48-.18.27-.36.54-.55.79a18.79,18.79,0,0,1-14.75,7.92h0a3.39,3.39,0,0,1-.45,0,18.31,18.31,0,0,1-10.84-3.57c-.41.14-.82.27-1.24.38a15.33,15.33,0,0,1-4,.52c-9.28,0-16.81-8-16.81-17.92a18,18,0,0,1,9.62-16.21c.49-.24,1-.46,1.49-.65,0-.14,0-.29.08-.42v0C38.05,8.74,49.39,0,62.6,0A28.78,28.78,0,0,1,80,5.69c.42.32.83.64,1.23,1,.49-.23,1-.44,1.49-.63a29.83,29.83,0,0,1,10.83-2,33.89,33.89,0,0,1,5.58.47c10.66,1.84,19.39,8.55,22.62,17.27.12.31.23.61.33.93.35.16.69.34,1,.53A20.76,20.76,0,0,1,133.54,41.57Z"/><path class="cls-11" d="M109.62,74.34c-.09.35-.21.69-.33,1a79.59,79.59,0,0,1-8.35,2.23A74.53,74.53,0,0,1,89,79c-2,.05-4,0-6-.06a48.89,48.89,0,0,1-5.94-.71,77.37,77.37,0,0,0,11.89,0,81.53,81.53,0,0,0,11.75-1.59l1.45-.27,1.45-.34c1-.25,1.92-.45,2.87-.72Z"/><path class="cls-11" d="M110,70.36v1l-1,.29A89.31,89.31,0,0,1,97.18,74a49.6,49.6,0,0,1-12,.16,44.08,44.08,0,0,0,6-.21c2-.14,4-.41,5.91-.71a109.61,109.61,0,0,0,11.64-2.52Z"/><path class="cls-11" d="M110,66.32v1l-1,.29A91,91,0,0,1,97.18,70a49.6,49.6,0,0,1-12,.15,45.76,45.76,0,0,0,6-.2c2-.14,4-.42,5.91-.72a109.61,109.61,0,0,0,11.64-2.52Z"/><path class="cls-11" d="M40.6,30.44a10.41,10.41,0,0,1-6.48-8.79c.49-.24,1-.46,1.49-.65,0-.14,0-.29.08-.42A11.39,11.39,0,0,0,40.6,30.44Z"/><path class="cls-11" d="M75.26,18C73.81,12.77,76,8.72,80,5.69c.42.32.83.64,1.23,1,.49-.23,1-.44,1.49-.63C78,8.66,74.92,12.33,75.26,18Z"/><path class="cls-11" d="M123.08,23.27a11.13,11.13,0,0,0-8.1,1.54,10.47,10.47,0,0,1,6.73-3c.12.31.23.61.33.93C122.39,22.9,122.73,23.08,123.08,23.27Z"/><path class="cls-11" d="M102,56.57A8.32,8.32,0,0,1,100,48.08a12.92,12.92,0,0,1,.72-1.65,10.14,10.14,0,0,0-2.43,7.22,30,30,0,0,1-7,.82A32.75,32.75,0,0,1,85.9,54a31.6,31.6,0,0,1-10.75-3.92,7.77,7.77,0,0,1-2.42-2.18c-3-4.16-4.17-8.63-1.6-13.61-3.85,4.7-2.89,10.23,1,15.56a18.11,18.11,0,0,1-14.73,7.82,19.67,19.67,0,0,1-2.64-.2c-9.07-3-16.5-7.1-15.7-16-1.75,5.64,1,10.3,6.26,13.77.26.16.82.42.82.42a20.06,20.06,0,0,0,11.26,3.54,19.62,19.62,0,0,0,16-8.44,33.51,33.51,0,0,0,12.32,4.75,34.35,34.35,0,0,0,5.7.48,31.29,31.29,0,0,0,7.4-.87c2.93,3.78,6.86,7.13,11.26,8.12V61.67A17.2,17.2,0,0,1,102,56.57Z"/><path class="cls-11" d="M40.25,20.29A31.13,31.13,0,0,1,45.5,11.4,22.28,22.28,0,0,1,54,5.35,25,25,0,0,1,64.27,3.79,32.3,32.3,0,0,1,74.35,6a41.42,41.42,0,0,0-10.1-1.46,25.46,25.46,0,0,0-9.9,1.72,22.52,22.52,0,0,0-8.28,5.63A39.62,39.62,0,0,0,40.25,20.29Z"/><path class="cls-11" d="M80.46,12a30.79,30.79,0,0,1,9.53-4,22.21,22.21,0,0,1,10.41.23,25,25,0,0,1,9.18,4.91A32.26,32.26,0,0,1,116.31,21a41.46,41.46,0,0,0-7.22-7.22,25.38,25.38,0,0,0-9-4.55,22.7,22.7,0,0,0-10-.44A39.27,39.27,0,0,0,80.46,12Z"/><path class="cls-11" d="M126.38,29.3a27.69,27.69,0,0,1,3.68,12,16.23,16.23,0,0,1-4.17,11.86,16.51,16.51,0,0,1-11.55,5,16.1,16.1,0,0,1-6.25-1.2A13.83,13.83,0,0,1,103,53.28a15.3,15.3,0,0,0,11.32,4.09,16,16,0,0,0,10.84-4.9,14.66,14.66,0,0,0,3.15-5.14,18.2,18.2,0,0,0,1-6,23.05,23.05,0,0,0-.86-6.11A38.28,38.28,0,0,0,126.38,29.3Z"/><path class="cls-11" d="M97.37,49.08a26,26,0,0,1-8.07,1.73,20.89,20.89,0,0,1-4.18-.27,17.15,17.15,0,0,1-4-1.29,13.82,13.82,0,0,1-6.16-5.65,11.72,11.72,0,0,1-1.37-4,5.67,5.67,0,0,1,.78-4,5.79,5.79,0,0,0-.29,3.93,11.2,11.2,0,0,0,1.55,3.66,14.3,14.3,0,0,0,5.92,5.14A18.84,18.84,0,0,0,89.29,50,35.88,35.88,0,0,0,97.37,49.08Z"/><path class="cls-11" d="M70.76,45.35a26.09,26.09,0,0,1-6,5.65A20.83,20.83,0,0,1,61,52.93a17,17,0,0,1-4.11,1,13.8,13.8,0,0,1-8.19-1.65,11.79,11.79,0,0,1-3.22-2.7,5.65,5.65,0,0,1-1.41-3.85,5.75,5.75,0,0,0,1.78,3.53,11.58,11.58,0,0,0,3.22,2.33,14.29,14.29,0,0,0,7.72,1.34,18.8,18.8,0,0,0,7.52-2.56A36.13,36.13,0,0,0,70.76,45.35Z"/><path class="cls-11" d="M44.21,52.94a18.07,18.07,0,0,1-4.08-.31,16.68,16.68,0,0,1-3.9-1.4,15.25,15.25,0,0,1-5.92-5.79A18,18,0,0,1,28,37.52a14,14,0,0,1,.34-4.13,7.52,7.52,0,0,1,.78-1.93A3.23,3.23,0,0,1,30.54,30a4.9,4.9,0,0,0-1.75,3.45,13.48,13.48,0,0,0-.06,4,19.76,19.76,0,0,0,2.46,7.49,16,16,0,0,0,5.42,5.61A18.62,18.62,0,0,0,44.21,52.94Z"/></g></g></svg>